/* XPM */
static char *_40b56cfa4954c90b60deca895c9b912srYceOQ6dSIbyvam[] = {
/* columns rows colors chars-per-pixel */
"64 64 2 1 ",
"  c None",
". c cyan",
/* pixels */
"                                                                ",
"                                                                ",
"                                                                ",
"                                                                ",
"                                                                ",
"                                                                ",
"                                                                ",
"                                                                ",
"                                                                ",
"                                                                ",
"                                                                ",
"                                                                ",
"                                                                ",
"                    ...............                             ",
"                   ..................                           ",
"                 ....             ....                          ",
"                ....               ....                         ",
"               ...                   ....                       ",
"              ...                     ....                      ",
"             ...                        ...                     ",
"             ..                          ...                    ",
"             ..                           ...                   ",
"            ...       .................    ...                  ",
"            ..       ....................   ...                 ",
"           ...      ....              ....   ...                ",
"           ..       ..                  ..... ..                ",
"           ..      ...                   ........               ",
"          ...      ...                      .. ....             ",
"          ..       ..                       ... ....            ",
"          ..       ..       ......           ..   ...           ",
"          ..       ..      .........         ..    ..           ",
"          ..       ..      ..    ...         ..    ...          ",
"          ..      ...     ...     ..         ...    ...         ",
"          ..      ..      ..  ..  ..          ..     ...        ",
"          ..      ..      ..  .. ...          ..      ..        ",
"          ..      ...     ..  ......          ..      ...       ",
"          ..       ..     ..   ....           ...      ..       ",
"          ..       ..     ...                  ..      ..       ",
"          ..       ..     ...                  ..      ...      ",
"          ..       ..      ...                 ..       ..      ",
"          ..       ..      ...                ...       ..      ",
"          ..       ...      ......           ....       ..      ",
"          ..        ..       ........       ...         ..      ",
"          ..        ..           ..............         ..      ",
"          ..        ...             .........           ..      ",
"          ..        ...                                 ..      ",
"          ..         ...                                ..      ",
"          ...         ...                               ..      ",
"           ...         .....                            ..      ",
"            ...         ......                         ...      ",
"             ....          .....                       ..       ",
"              .....          .....                    ...       ",
"                .....         .....                  ...        ",
"                  ......        ......            ......        ",
"                    .......       .........     ......          ",
"                       ......        ...............            ",
"                          ......          .......               ",
"                            ........................            ",
"                               .....................            ",
"                                                                ",
"                                                                ",
"                                                                ",
"                                                                ",
"                                                                "
};
