/* XPM */
static char *_a8c120455b147b4865ac7f34b2b3d8aoS3Ue5tnLD4KY9pR[] = {
/* columns rows colors chars-per-pixel */
"64 64 3 1 ",
"  c None",
". c black",
"X c #04FF00",
/* pixels */
"                                                                ",
"                                                                ",
"                                                                ",
"                                                                ",
"                                                                ",
"                                                                ",
"                                                                ",
"                                                                ",
"                                                                ",
"                                                                ",
"                                                                ",
"                             ........................           ",
"                          ...........................           ",
"                        .............................           ",
"                     ..........  XXXXXXX ...........            ",
"                   ........... XXXXXXXXX..... ........          ",
"                  ........ ....XXXXXXXX.....    ......          ",
"                 ......    ....XXXXXXX.....XXXXXXX......        ",
"                .....XXXXXXX....XXXXX.....XXXXXXXXX.....        ",
"               ......XXXXXXX....XXXX......XXXXXXXXXX.....       ",
"               .....XXXXXXXXX....XX.....XXXXXXXXXXXXX.....      ",
"              .....XXXXXXXXXX...........XXXXXXXXXXXXXX....      ",
"             .....XXXX   XXXX .........XX XXXXXXXXXXXXX....     ",
"             ....XXXXX     XX. .......XX      XXXXXXXXX....     ",
"             ....XXXX      XX. ......XX          XXXXXX....     ",
"            X...XXXX        X.......XXXX         XXXXXXX...     ",
"            ....XXXX        X........XXX         XXXXXXX...     ",
"           X....XXXXX      XX.........XX        XXXXXXXX...     ",
"           X...XXXXXXXXXXXXXX.... ....XXXXX   XXXXXXXXXX....    ",
"           X...XXXXXXXXXXXX .... XX....XXXXXXXXXXXXXXXXX....    ",
"           X...XXXXXXXXXXXX....  XX.....XXXXXXXXXXXXXXXX....    ",
"           X...XXXXXXXXXXX.....XXXXX.....XXXXXXXXXXXXXXX... .   ",
"           X...XXXXXXXXXXX....XXXXXXX....XXXXXXXXXXXXXXX... .   ",
"           X...XXXXXXXXXX....XXXXXXXX..... XXXXXXXXXXXXX.....   ",
"           ....XXXXXXXXXX....XXXXXXXXX....   XXXXXXXXXX.....    ",
"           ....XXXXXXXXXX....XXXXXXXXXX....  XXXXXXXXXX....     ",
"           .....XXXXXXXX....XXXXXXXXXXX.....   XXXXXXXX....     ",
"            ....XXXXXXXX........XXXX... ....   XXXXXXX....      ",
"            .....XXXX   ...X.XX..XX..X.......  XXXXXX ....      ",
"             ....XXX   ....XXXXX....XXX. ....  XXXX   ...       ",
"             .....XX   ....XXXXXXXXXXXXXXX....  XXX .....       ",
"              ......  ....XXXXXXXXXXXXXXXX....XXXX.......       ",
"               ...........XXXXXXXXXXXXXXXX....XX........        ",
"                .............XXXXXXXXXXXXX............          ",
"                  ..................................            ",
"                     .............................              ",
"                           .................                    ",
"                                                                ",
"                                                                ",
"                                                                ",
"                                                                ",
"                                                                ",
"                                                                ",
"                                                                ",
"                                                                ",
"                                                                ",
"                                                                ",
"                                                                ",
"                                                                ",
"                                                                ",
"                                                                ",
"                                                                ",
"                                                                ",
"                                                                "
};
