/* XPM */
static char *e2b0fee41f1943d4ee0dab70cebd5b35BnBelghljY7OSRm7[] = {
/* columns rows colors chars-per-pixel */
"64 64 219 2 ",
"   c None",
".  c #010100",
"X  c #0B0403",
"o  c #0D0906",
"O  c #130504",
"+  c #1D0705",
"@  c #120A06",
"#  c #1B0907",
"$  c #130D09",
"%  c #1E0B08",
"&  c #17110B",
"*  c #1C130C",
"=  c #1D1511",
"-  c #210706",
";  c #240907",
":  c #240A09",
">  c #2D0B09",
",  c #2B0907",
"<  c #340C0A",
"1  c #3C0E0B",
"2  c #310A07",
"3  c #23160C",
"4  c #28180E",
"5  c #38160E",
"6  c #241A13",
"7  c #2B1C13",
"8  c #291E19",
"9  c #231610",
"0  c #3B1F13",
"q  c #36210F",
"w  c #2A2117",
"e  c #34251B",
"r  c #392717",
"t  c #2E2521",
"y  c #372720",
"u  c #39302C",
"i  c #440E0B",
"p  c #4B0F0C",
"a  c #44110D",
"s  c #4C110D",
"d  c #54120D",
"f  c #5B120D",
"g  c #491511",
"h  c #5D1611",
"j  c #561712",
"k  c #63130E",
"l  c #6A140F",
"z  c #72150F",
"x  c #7B160F",
"c  c #631511",
"v  c #6C1611",
"b  c #651914",
"n  c #6C1914",
"m  c #691E19",
"M  c #741610",
"N  c #7B1710",
"B  c #731914",
"V  c #7C1A13",
"C  c #731E18",
"Z  c #442917",
"A  c #4B321B",
"S  c #593719",
"D  c #5F2D19",
"F  c #78231E",
"G  c #453323",
"H  c #4B3628",
"J  c #543827",
"K  c #4B3830",
"L  c #78471B",
"P  c #5D4736",
"I  c #5A432F",
"U  c #684A2D",
"Y  c #774C26",
"T  c #6A4B37",
"R  c #7B4A34",
"E  c #765436",
"W  c #7B532E",
"Q  c #775743",
"!  c #76614A",
"~  c #841A13",
"^  c #8C1B14",
"/  c #8C1F18",
"(  c #941C14",
")  c #9A1E16",
"_  c #961F18",
"`  c #8C221B",
"'  c #83211B",
"]  c #9C2017",
"[  c #9C2119",
"{  c #95241D",
"}  c #A4241C",
"|  c #A9271F",
" . c #AB281F",
".. c #8F2922",
"X. c #982B24",
"o. c #952822",
"O. c #AD2A21",
"+. c #B42D24",
"@. c #B82F27",
"#. c #AC312A",
"$. c #B93027",
"%. c #BC332A",
"&. c #B53129",
"*. c #C3362D",
"=. c #C7382F",
"-. c #C8382F",
";. c #CC3C33",
":. c #C03830",
">. c #9C5616",
",. c #995517",
"<. c #8F5118",
"1. c #A7491D",
"2. c #A35B1B",
"3. c #8E4628",
"4. c #895526",
"5. c #855B35",
"6. c #945831",
"7. c #AB4F27",
"8. c #B3552D",
"9. c #A5593A",
"0. c #B7572F",
"q. c #96673D",
"w. c #8C623C",
"e. c #AD6423",
"r. c #A2652F",
"t. c #B66B28",
"y. c #AA713D",
"u. c #B97436",
"i. c #A86930",
"p. c #C1742F",
"a. c #CD6234",
"s. c #D2683B",
"d. c #C47936",
"f. c #C77E3B",
"g. c #C57B37",
"h. c #876546",
"j. c #966B59",
"k. c #946D50",
"l. c #AF7744",
"z. c #B3744A",
"x. c #927366",
"c. c #A97A66",
"v. c #B07D68",
"b. c #D56E43",
"n. c #DD7549",
"m. c #DD784D",
"M. c #D57850",
"N. c #E27D53",
"B. c #CA803D",
"V. c #A7835D",
"C. c #B88557",
"Z. c #B78B65",
"A. c #BD926C",
"S. c #B08971",
"D. c #CB8647",
"F. c #D28B4C",
"G. c #D08745",
"H. c #C88B55",
"J. c #D89558",
"K. c #DF8159",
"L. c #EB865C",
"P. c #EC885E",
"I. c #E5835A",
"U. c #E19C5F",
"Y. c #E2A75B",
"T. c #D78867",
"R. c #CA9667",
"E. c #D79D68",
"W. c #CE9279",
"Q. c #C88F6F",
"!. c #EC8B62",
"~. c #E68760",
"^. c #F1936B",
"/. c #F49A74",
"(. c #F59E79",
"). c #EE946D",
"_. c #DEA16A",
"`. c #CDA175",
"'. c #CBA77B",
"]. c #DDA876",
"[. c #DCB57F",
"{. c #E2A46B",
"}. c #E9A66A",
"|. c #ECAD73",
" X c #E1A974",
".X c #ECB37D",
"XX c #F2B37A",
"oX c #F8A27F",
"OX c #A18A80",
"+X c #DB9C82",
"@X c #CC9883",
"#X c #DAA891",
"$X c #ECA587",
"%X c #FCAC8A",
"&X c #E7B887",
"*X c #F2B781",
"=X c #F5BD8A",
"-X c #F2B984",
";X c #EDB49B",
":X c #FFB596",
">X c #FEB799",
",X c #FBB99D",
"<X c #F1AE93",
"1X c #D0B0A3",
"2X c #E9BAA6",
"3X c #F5BDA5",
"4X c #F9BCA3",
"5X c #F5BFA9",
"6X c #E9C28D",
"7X c #F7C18F",
"8X c #EBC293",
"9X c #EDC89B",
"0X c #F4C293",
"qX c #F5C496",
"wX c #EECDA4",
"eX c #F5C0AA",
"rX c #EDC5B5",
"tX c #EDC9B9",
"yX c #F1C5B2",
/* pixels */
"                                            . & h.7X7X7X7X7X7XqX7X|.|.H & .                                                     ",
"                                          . o k.-X{.J.F.B.F.w.J.C.l.G.|.I .                                                     ",
"                                          . I |.F.6.A 5.c.! q.5.D.r A y.J.& .                                                   ",
"                                        . G *Xw.. S W E R.S.].XXA.XX$ r i.E .                                                   ",
"                                        o R.w.. W R.E C.].A.'.7XV.=X6X3 Y J..                                                   ",
"                                        $ }.Y q }.k.q C.|.u C.E.U .XR.R.. _.X                                                   ",
"                                      7 w XX. A W Y 3 r.B.4 u.y.7 5.Q XX. |.6 .                                                 ",
"                                      8 ! -X. J.. . . . . . . . . . H.J.w 7XH .                                                 ",
"                                      r S.7X. f.. N.4 * n.n.3 % /.. p.G.P 8XZ..                                                 ",
"                                      6 '.qX. W . :X1.1././.1.7.:X. S & '.9X'..                                                 ",
"                                      = &X9XX . . :X,X>X5X>X:X:X,X. . V.8XwX_..                                                 ",
"                                      & 8X9XqX. . #XrX4XeX5X:X3XeX. G &X9XwXh.o                                                 ",
"                                      o 0X8X9X|.. x.eX. +X:X. :X>X. C.6X9XwXV..                                                 ",
"                                      . =X*XqX_.H.K :X+X. X $X3X].G `.6X6X9XQ .                                                 ",
"                                      . *X{..XF.J.o = :X<X$X:XQ y k.F.{.&X&XI .                                                 ",
"                                      . .X.XE.B.F.q.. & S.$XG X Y t.B.J. X].G .                                                 ",
"                                      . {._.F.B.t.e.# . . . X G e.e.u.G.].G.e .                                                 ",
"                                      o F.t.g.e.,.2.X 6.0.s.3 Y ,.e.e.d.B.g.3 .                                                 ",
"                                      r d.>.2.>.<.<.* K.L.P.J . L L ,.e.p.B.7 .                                                 ",
"                                      Z ,.>.Y & $ . . /.P.^.X . e X q 4.t.t.* .                                                 ",
"                                      T <.& S.OX1X5X. . . . . ,XyXtXx.w q t.& o                                                 ",
"                                      T o K tXtX:X:X:X. Y.. :X:X,XeXrXx.o A e 6                                                 ",
"                                      o u 2XrX:X:X:X:X. . . :X:XW.Q >X,Xc.6 7 6                                                 ",
"                                    . t rX4XQ.u . :X:X:X:X4X4XS.. = W.:X:XQ * e                                                 ",
"                                    @ @X:X:Xe . . . 2XtXtXtXt . . . T (.>X:XG O                                                 ",
"                                  . j.:X:X3X. X.#.. . . . . . # ;.1 $ b.%X:X<X8 .                                               ",
"                                  y :X:XeXS.. %.;.;.g . . X ;.;.;.X.$ 8.L.:X:Xj..                                               ",
"                                . v.>X5X;X3.o ;.;.;.;.;...;.;.;.;.;.Z 7.s.^.:X:X6 .                                             ",
"                              . K :X5X<Xs.5 X *.;.;.;.;.;.;.;.;.;.;.0 8.a.P.%X:X@XX .                                           ",
"                              t +XeX2XI.a.$ . +.;.;.;.;.;.;.;.;.:.#.. 8.a.I.^.:X:XP .                                           ",
"                            . h.4X;X/.s.a.X . } :.;.;.;.;.;.;.%.O.g . D 3.n.L./.:X:X& .                                         ",
"                          . y 3X2X$Xs.a.Z 3 . ` } +.+.+.+.+.+.O.+.X & <.3 R L.L.(.%XA.o                                         ",
"                          = x.5X<XL.s.0 q e.X c ) | O.@.@.O.O./ b . ,.>.L X 7 L.~.!.%XT X                                       ",
"                        o K 5X2XI.N.7 . L 2.3 # / _ } O.O.O._ s . $ >.2.u.G . 9 ~.!.!.%Xy .                                     ",
"                      . & (.(.N.w.* . X * p.E X i n ~ / / n > . X G t.t.S X   . o 5.m.N.T.8 .                                   ",
"                      . M.N.z.J $       X q.& 2 X O s d h X . 1 h O T l.o       . . = 9.m.!.= .                                 ",
"                    . t I.b.Z @         . . O s O X X O X X 2 O s , X & o           . X * R K .                                 ",
"                    . o 7 # .             . < h + v s X a c c + - f - .                 . o w                                   ",
"                      . .               . + d 1 d C f - ~ c n s O 1 v X .                                                       ",
"                                      X X f c + C ) M ; M B @.V 2 + b C . .                                                     ",
"                                      . s d s ; @.@.^ < B O.-.) c - s o.a .                                                     ",
"                                    X X ~ f ; n *.:.) g B O.-.O.V < < o.+.X .                                                   ",
"                                    . X.^ p + &.*.;.) j ~ %.;.*.[ d : o.;.F X 1                                                 ",
"                                  X 1 +.( 2 i %.;.;.O.b o.-.;.-.O.C : m ;.;.> O                                                 ",
"                                . X &.} ^ # { %.;.;.O.b O.;.;.;.+.~ , j ;.;.@.; >                                               ",
"                                . ..%.) f + +.*.;.;.O.h O.;.;.;.%./ < a ;.;.*.b X                                               ",
"                              X < #.+.) , 1 @.-.;.;.@.b #.;.;.;.%.] s 1 -.;.;.{ # O                                             ",
"                            X X %.#.+.) + V @.;.;.;.@.m %.;.;.;.+.] s > &.;.;.+.d X                                             ",
"                            X j ;.*.+.~ + ) $.;.;.;.;.F %.;.;.;.%.] c i $.;.;.+.C 1 :                                           ",
"                          . O :.;.@.+.l p | %.;.;.;.;.%.;.;.;.;.*.] M j %.;.;.@.` ' X                                           ",
"                          . j ;.-.@.O.p b } %.;.;.:.;.;.;.;.;.*.*.} ~ d +.;.;.$.+.O.< X                                         ",
"                        . O o.=.*.@.} i ~ O.*.;.;.%.;.;.;.;.;.*.*.} ~ s +.;.;.$.+.O...X                                         ",
"                        . 1 O.%.*.+.O.i _ } -.;.;.*.;.;.;.;.;.%.=.} ( s O.-.;.@.+.} O.X                                         ",
"                        X b ) @.*.+.O.1 o.] *.;.;.%.;.;.;.;.-.*.*.| [ d +.*.;.*.} [ / : O                                       ",
"                      X : V ) O.O.O.O.i o.} @.;.;.%.;.;.;.;.*.*.%.O.] h O.%.;.| ) ^ V s ;                                       ",
"                      X g V ) ) ) ) ] p o.} +.;.=.*.;.%.=.;.%.;.%.+.} b } +.+.) ( ~ ~ d O                                       ",
"                      O c M / ) ) ) ) ( } | }  .@.@.-.*.@.-.@.-.$.+.O.b } O.] ( ( N z d O                                       ",
"                    . ; v M / ) ) ] ] ) ] } ) ] O.+.*.@.+.@.@.-.O.[ ) / } ) ( ( ( N l d O d                                     ",
"                    X < v M ~ _ ] ] ] ] } ] ( ( ) } | +.| } | } ( ( ( ( ( ( ( ( ( z v f - 1                                     ",
"                    : s l v M ~ ] ] ] ) ( ( ( ( ( ( ) ] ( ( ( ( ( ( ( ( ( ( ( ( ^ z z f 2 -                                     ",
"                    + p f f v V ^ ( ( ( ( ( ( ( ( ( ^ ^ ( ( ( ( ( ( ( ( ( ( ^ ( N f k d i X                                     ",
"                    # i s f l v l ~ ~ ^ ^ ^ ( ( ( ( ^ ~ ( ( ( ( ( ( ( ( ^ ~ N ~ l f k p i .                                     ",
"                    # i s f d k f z ~ x x x ~ ~ ( ^ ( ~ ^ ^ ~ ^ ^ x x ^ z k l ~ k f f s i .                                     ",
"                    b d d k s M k z z k f x x x x z l x l l x l z k k l f l l l k k d f s X                                     "
};
