/* XPM */
static char *b7ae5e28a3804ce5f4de277e4b31a6c2MyJgjfPJjXgFPsYw[] = {
/* columns rows colors chars-per-pixel */
"64 64 2 1 ",
"  c black",
". c #3BF900",
/* pixels */
"                                                                ",
"                                                                ",
"                                                                ",
"                                                                ",
"                                                                ",
"                                                                ",
"                                                                ",
"                                                                ",
"              ..... ........                                    ",
"           ....   ..       ..                                   ",
"         ..      ..          ..                                 ",
"      ...        ..           .                                 ",
"     ..          ..            .                                ",
"     .                          .                               ",
"     .                          .                               ",
"     . ...                       .                              ",
"     ..  .                 ..............                       ",
"     .....              ...              ....                   ",
"   ..  ..              .                     ..                 ",
"   .                  .                       ..                ",
"  .                 ..                          ..              ",
"  .                .                             .              ",
"  .               .                               .             ",
"  . ..          ..                                 .            ",
"  ....         ..      .....                        .           ",
"   .           .      .     ..                       .          ",
"  ..          .     ..        .          ....        .          ",
"  .          .     ..         .         .    ..       .         ",
"             .     ..         .        .       .      .         ",
"            .        ..      ..        .        ..     .        ",
"            .         ..    ..         .         ..    .        ",
"           .        ..... ..           .          .    .        ",
"           .           ...             .          .     .       ",
"           .                     .     ..        .      .       ",
"           ..                    .      .       ..      .       ",
"            .                   ..      .........       .       ",
"            .                   .                       .       ",
"            .                   .  .                    .       ",
"            .                  .....                    .       ",
"            .                                           .       ",
"            .                                           .       ",
"            .                                           .       ",
"            .                                           .       ",
"            .               .                           .       ",
"            ..              .                          .        ",
"             ..             .     .                    .        ",
"              ...           ..    .                   ..        ",
"                ..           .   ..                   .         ",
"                 .            . ..                   .          ",
"                  ..          ...                   .           ",
"                   ..                             ..            ",
"                    ..                        ....              ",
"                      ..                  ....                  ",
"                        ..             ...                      ",
"                         ..          ...                        ",
"                           ..       ..                          ",
"                             ..    ..                           ",
"                              ......                            ",
"                                .                               ",
"                                                                ",
"                                                                ",
"                                                                ",
"                                                                ",
"                                                                "
};
