/* XPM */
static char *_b319a78fe49473dd1e6941a06e520e9nIBwG2KJ8allakjb[] = {
/* columns rows colors chars-per-pixel */
"64 64 2 1 ",
"  c None",
". c #D900FF",
/* pixels */
"                                                                ",
"..                                                           .  ",
" .                                                          ..  ",
"  .                                                        ..   ",
"   .                                                      ..    ",
"    .                                                    ..     ",
"    .                                                   ..      ",
"     .                                                 ..       ",
"      .                                               ..        ",
"       .                                             ..         ",
"       .                                             .          ",
"        .                                           .           ",
"         .                                         .            ",
"          .                                        .            ",
"           .                                      .             ",
"            .                                    ..             ",
"             .                                  .               ",
"              .                                 .               ",
"              .                               ..                ",
"               .                             .                  ",
"               .                            .                   ",
"                .                         ..                    ",
"                 .                       .                      ",
"                  .                    ..                       ",
"                   .                  .                         ",
"                    .                .                          ",
"                     .              .                           ",
"                     .            ..                            ",
"                      .          .                              ",
"                      .         .                               ",
"                       .       .                                ",
"                        .     .                                 ",
"                         .   .                                  ",
"                          . .                                   ",
"                          ..                                    ",
"                          ..                                    ",
"                         .  .                                   ",
"                        .    .                                  ",
"                        .    .                                  ",
"                       .      ..                                ",
"                      .         .                               ",
"                     .           .                              ",
"                    .             .                             ",
"                   .               ..                           ",
"                   .                 .                          ",
"                  .                  .                          ",
"                 .                    .                         ",
"                 .                     ..                       ",
"                .                        .                      ",
"               .                          ..                    ",
"              .                             ..                  ",
"             .                               ..                 ",
"            .                                  ..               ",
"           .                                    ..              ",
"           .                                     .              ",
"          .                                       ...           ",
"         .                                           .          ",
"        .                                             ..        ",
"       .                                               ..       ",
"      .                                                  .      ",
"     .                                                    .     ",
"     .                                                     ..   ",
"   ..                                                        .  ",
"  .                                                           .."
};
